<?xml version="1.0" encoding="UTF-8"?>
<svg xmlns="http://www.w3.org/2000/svg" xmlns:xlink="http://www.w3.org/1999/xlink" width="230px" height="px" viewBox="0 0 193 161" version="1.1">
<g id="surface1">
<path style=" stroke:none;fill-rule:nonzero;fill:rgb(63, 62, 62);" d="M 43.867188 64.207031 C 41.71875 64.207031 39.660156 64.570312 37.613281 64.90625 C 38.277344 62.410156 38.960938 59.871094 40.054688 57.59375 C 41.152344 54.28125 42.867188 51.40625 44.570312 48.515625 C 45.992188 45.386719 48.503906 43.265625 50.351562 40.589844 C 52.285156 37.984375 54.921875 36.253906 57.007812 34.09375 C 59.058594 31.835938 61.742188 30.703125 63.878906 29.113281 C 66.109375 27.683594 68.054688 26.101562 70.132812 25.347656 L 75.316406 22.960938 L 79.878906 20.84375 L 75.210938 0 L 69.46875 1.546875 C 67.628906 2.066406 65.390625 2.667969 62.839844 3.386719 C 60.230469 3.925781 57.453125 5.398438 54.351562 6.742188 C 51.292969 8.269531 47.753906 9.304688 44.460938 11.753906 C 41.152344 14.097656 37.332031 16.058594 33.964844 19.199219 C 30.703125 22.433594 26.769531 25.242188 23.863281 29.359375 C 20.6875 33.210938 17.550781 37.253906 15.117188 41.859375 C 12.296875 46.246094 10.382812 51.0625 8.363281 55.828125 C 6.535156 60.59375 5.0625 65.464844 3.859375 70.195312 C 1.582031 79.683594 0.558594 88.695312 0.164062 96.40625 C -0.160156 104.128906 0.03125 110.546875 0.433594 115.195312 C 0.578125 117.390625 0.847656 119.519531 1.042969 120.992188 L 1.28125 122.800781 L 1.53125 122.734375 C 3.242188 131.667969 7.183594 139.882812 12.894531 146.417969 C 18.605469 152.957031 25.855469 157.550781 33.808594 159.675781 C 41.757812 161.796875 50.085938 161.363281 57.824219 158.417969 C 65.5625 155.472656 72.398438 150.136719 77.535156 143.03125 C 82.675781 135.925781 85.910156 127.339844 86.867188 118.261719 C 87.824219 109.1875 86.460938 99.996094 82.9375 91.75 C 79.417969 83.503906 73.878906 76.539062 66.964844 71.667969 C 60.046875 66.792969 52.039062 64.207031 43.867188 64.207031 Z M 149.699219 64.207031 C 147.554688 64.207031 145.496094 64.570312 143.445312 64.90625 C 144.109375 62.410156 144.792969 59.871094 145.890625 57.59375 C 146.988281 54.28125 148.699219 51.40625 150.402344 48.515625 C 151.828125 45.386719 154.339844 43.265625 156.1875 40.589844 C 158.121094 37.984375 160.757812 36.253906 162.84375 34.09375 C 164.894531 31.835938 167.578125 30.703125 169.714844 29.113281 C 171.945312 27.683594 173.890625 26.101562 175.96875 25.347656 L 181.152344 22.960938 L 185.714844 20.84375 L 181.046875 0 L 175.304688 1.546875 C 173.464844 2.066406 171.222656 2.667969 168.675781 3.386719 C 166.066406 3.925781 163.285156 5.398438 160.1875 6.742188 C 157.136719 8.28125 153.589844 9.304688 150.296875 11.765625 C 146.988281 14.109375 143.167969 16.066406 139.800781 19.207031 C 136.539062 22.445312 132.605469 25.253906 129.699219 29.359375 C 126.523438 33.210938 123.386719 37.253906 120.953125 41.859375 C 118.132812 46.246094 116.21875 51.0625 114.199219 55.828125 C 112.371094 60.59375 110.898438 65.464844 109.695312 70.195312 C 107.414062 79.683594 106.394531 88.695312 106 96.40625 C 105.671875 104.128906 105.867188 110.546875 106.269531 115.195312 C 106.414062 117.390625 106.683594 119.519531 106.875 120.992188 L 107.117188 122.800781 L 107.367188 122.734375 C 109.078125 131.667969 113.019531 139.882812 118.730469 146.417969 C 124.441406 152.957031 131.691406 157.550781 139.644531 159.675781 C 147.59375 161.796875 155.921875 161.363281 163.660156 158.417969 C 171.398438 155.472656 178.230469 150.136719 183.371094 143.03125 C 188.511719 135.925781 191.746094 127.339844 192.703125 118.261719 C 193.660156 109.1875 192.296875 99.996094 188.773438 91.75 C 185.25 83.503906 179.714844 76.539062 172.796875 71.667969 C 165.882812 66.792969 157.875 64.207031 149.699219 64.207031 Z M 149.699219 64.207031 "/>
</g>
</svg>
