<?xml version="1.0" encoding="UTF-8"?>
<svg xmlns="http://www.w3.org/2000/svg" xmlns:xlink="http://www.w3.org/1999/xlink" width="230px" height="px" viewBox="0 0 193 161" version="1.1">
<g id="surface1">
<path style=" stroke:none;fill-rule:nonzero;fill:rgb(81.176471%,81.176471%,81.176471%);fill-opacity:0.2;" d="M 149.132812 96.792969 C 151.28125 96.792969 153.339844 96.429688 155.386719 96.09375 C 154.722656 98.589844 154.042969 101.128906 152.945312 103.40625 C 151.847656 106.71875 150.132812 109.59375 148.429688 112.484375 C 147.007812 115.613281 144.496094 117.734375 142.648438 120.410156 C 140.714844 123.015625 138.078125 124.746094 135.992188 126.90625 C 133.941406 129.164062 131.257812 130.296875 129.121094 131.886719 C 126.890625 133.316406 124.945312 134.898438 122.867188 135.652344 L 117.683594 138.039062 L 113.121094 140.15625 L 117.789062 161 L 123.53125 159.453125 C 125.371094 158.933594 127.609375 158.332031 130.160156 157.613281 C 132.769531 157.074219 135.546875 155.601562 138.648438 154.257812 C 141.707031 152.730469 145.246094 151.695312 148.539062 149.246094 C 151.847656 146.898438 155.667969 144.941406 159.035156 141.800781 C 162.296875 138.566406 166.230469 135.757812 169.136719 131.640625 C 172.3125 127.789062 175.449219 123.746094 177.882812 119.140625 C 180.703125 114.753906 182.617188 109.9375 184.636719 105.171875 C 186.464844 100.40625 187.9375 95.535156 189.140625 90.804688 C 191.417969 81.316406 192.441406 72.304688 192.835938 64.59375 C 193.160156 56.871094 192.96875 50.453125 192.566406 45.804688 C 192.421875 43.609375 192.152344 41.480469 191.957031 40.007812 L 191.71875 38.203125 L 191.46875 38.265625 C 189.757812 29.332031 185.816406 21.117188 180.105469 14.582031 C 174.394531 8.042969 167.144531 3.449219 159.191406 1.324219 C 151.242188 -0.796875 142.914062 -0.363281 135.175781 2.582031 C 127.4375 5.527344 120.601562 10.863281 115.464844 17.96875 C 110.324219 25.074219 107.089844 33.660156 106.132812 42.738281 C 105.175781 51.8125 106.539062 61.003906 110.0625 69.25 C 113.582031 77.496094 119.121094 84.460938 126.035156 89.332031 C 132.953125 94.207031 140.960938 96.792969 149.132812 96.792969 Z M 43.300781 96.792969 C 45.445312 96.792969 47.503906 96.429688 49.554688 96.09375 C 48.890625 98.589844 48.207031 101.128906 47.109375 103.40625 C 46.011719 106.71875 44.300781 109.59375 42.597656 112.484375 C 41.171875 115.613281 38.660156 117.734375 36.8125 120.410156 C 34.878906 123.015625 32.242188 124.746094 30.15625 126.90625 C 28.105469 129.164062 25.421875 130.296875 23.285156 131.886719 C 21.054688 133.316406 19.109375 134.898438 17.03125 135.652344 L 11.847656 138.039062 L 7.285156 140.15625 L 11.953125 161 L 17.695312 159.453125 C 19.535156 158.933594 21.777344 158.332031 24.324219 157.613281 C 26.933594 157.074219 29.714844 155.601562 32.8125 154.257812 C 35.863281 152.71875 39.410156 151.695312 42.703125 149.234375 C 46.011719 146.890625 49.832031 144.933594 53.199219 141.792969 C 56.460938 138.554688 60.394531 135.746094 63.300781 131.640625 C 66.476562 127.789062 69.613281 123.746094 72.046875 119.140625 C 74.867188 114.753906 76.78125 109.9375 78.800781 105.171875 C 80.628906 100.40625 82.101562 95.535156 83.304688 90.804688 C 85.585938 81.316406 86.605469 72.304688 87 64.59375 C 87.328125 56.871094 87.132812 50.453125 86.730469 45.804688 C 86.585938 43.609375 86.316406 41.480469 86.125 40.007812 L 85.882812 38.203125 L 85.632812 38.265625 C 83.921875 29.332031 79.980469 21.117188 74.269531 14.582031 C 68.558594 8.042969 61.308594 3.449219 53.355469 1.324219 C 45.40625 -0.796875 37.078125 -0.363281 29.339844 2.582031 C 21.601562 5.527344 14.769531 10.863281 9.628906 17.96875 C 4.488281 25.074219 1.253906 33.660156 0.296875 42.738281 C -0.660156 51.8125 0.703125 61.003906 4.226562 69.25 C 7.746094 77.496094 13.285156 84.460938 20.203125 89.332031 C 27.117188 94.207031 35.125 96.792969 43.300781 96.792969 Z M 43.300781 96.792969 "/>
</g>
</svg>
