<svg width="26" height="29" viewBox="0 0 26 29" fill="none" xmlns="http://www.w3.org/2000/svg">
<path d="M0.129707 23.3971V4.49937C0.129707 3.38559 0.572154 2.31743 1.35971 1.52987C2.14727 0.742312 3.21543 0.299866 4.32921 0.299866H23.9269C24.2981 0.299866 24.6542 0.447348 24.9167 0.709867C25.1792 0.972387 25.3267 1.32844 25.3267 1.6997V26.8967C25.3267 27.268 25.1792 27.624 24.9167 27.8865C24.6542 28.1491 24.2981 28.2965 23.9269 28.2965H5.02912C3.72972 28.2965 2.48353 27.7803 1.56471 26.8615C0.645895 25.9427 0.129707 24.6965 0.129707 23.3971ZM22.527 25.4969V21.2974H5.02912C4.47224 21.2974 3.93816 21.5186 3.54438 21.9124C3.1506 22.3062 2.92937 22.8402 2.92937 23.3971C2.92937 23.954 3.1506 24.4881 3.54438 24.8819C3.93816 25.2756 4.47224 25.4969 5.02912 25.4969H22.527ZM2.92937 18.9694C3.58546 18.6579 4.30282 18.4967 5.02912 18.4977H22.527V3.09953H4.32921C3.95795 3.09953 3.6019 3.24701 3.33938 3.50953C3.07686 3.77205 2.92937 4.12811 2.92937 4.49937V18.9694Z" fill="white"/>
</svg>
